<svg width="30" height="36" viewBox="0 0 30 36" fill="none" xmlns="http://www.w3.org/2000/svg">
<path d="M30.0055 17.8271C30.0066 18.2838 29.8895 18.733 29.6656 19.1311C29.4416 19.5291 29.1185 19.8625 28.7276 20.0986L4.50222 34.9184C4.09378 35.1685 3.62599 35.305 3.14715 35.3139C2.66831 35.3228 2.19578 35.2036 1.77837 34.9688C1.36494 34.7377 1.02053 34.4006 0.780576 33.9922C0.540621 33.5838 0.413777 33.1188 0.413086 32.6452V3.00904C0.413777 2.53537 0.540621 2.07043 0.780576 1.66204C1.02053 1.25364 1.36494 0.916528 1.77837 0.685367C2.19578 0.450559 2.66831 0.331438 3.14715 0.340305C3.62599 0.349172 4.09378 0.485707 4.50222 0.735809L28.7276 15.5555C29.1185 15.7917 29.4416 16.1251 29.6656 16.5231C29.8895 16.9212 30.0066 17.3704 30.0055 17.8271Z" fill="white"/>
</svg>
